<svg width="1491" height="898" viewBox="0 0 1491 898" fill="none" xmlns="http://www.w3.org/2000/svg">
<g clip-path="url(#clip0_8_2)">
<path d="M1491 0H-2.07373V1080H1491V0Z" fill="#F8FAFC"/>
<path d="M57.4995 918.425C192.821 915.855 340.582 905.023 441.448 817.902C539.033 733.617 523.534 585.587 576.629 470.04C628.922 356.24 749.514 269.462 750.671 144.974C751.871 15.8513 673.936 -103.691 582.838 -198.246C493.585 -290.886 371.108 -340.865 246.073 -378.774C119.048 -417.288 -17.5965 -461.226 -143.112 -418.352C-266.845 -376.086 -336.742 -255.646 -414.08 -153.278C-485.477 -58.7756 -562.71 37.0303 -575.059 153.386C-587.19 267.666 -519.393 369.859 -481.152 478.646C-438.043 601.282 -438.713 749.04 -336.28 832.67C-231.417 918.285 -79.8141 921.031 57.4995 918.425Z" fill="#2563EB"/>
</g>
<defs>
<clipPath id="clip0_8_2">
<rect width="1491" height="898" fill="white"/>
</clipPath>
</defs>
</svg>
