<svg width="115" height="41" viewBox="0 0 115 41" fill="none" xmlns="http://www.w3.org/2000/svg">
<path fill-rule="evenodd" clip-rule="evenodd" d="M0 20.5C0 31.8221 9.17785 41 20.5 41C31.8221 41 41 31.8221 41 20.5C41 9.17785 31.8221 0 20.5 0C9.17785 0 0 9.17785 0 20.5ZM20.5 36.9C13.0544 36.9 6.84597 31.6079 5.4284 24.5795C5.09425 22.9169 6.50157 21.525 8.2 21.525H32.8C34.4984 21.525 35.9068 22.9159 35.5716 24.5795C34.153 31.6089 27.9456 36.9 20.5 36.9Z" fill="#2563EB"/>
<path d="M46.2109 31.5V15H49.9922V17.0547H50.1094C50.2656 16.6901 50.487 16.3385 50.7734 16C51.0651 15.6615 51.4349 15.3854 51.8828 15.1719C52.3359 14.9531 52.8776 14.8438 53.5078 14.8438C54.3411 14.8438 55.1198 15.0625 55.8438 15.5C56.5729 15.9375 57.1615 16.612 57.6094 17.5234C58.0573 18.4349 58.2813 19.5964 58.2813 21.0078C58.2813 22.3672 58.0651 23.5052 57.6328 24.4219C57.2057 25.3385 56.6276 26.026 55.8984 26.4844C55.1745 26.9427 54.3698 27.1719 53.4844 27.1719C52.8802 27.1719 52.3568 27.0729 51.9141 26.875C51.4714 26.6771 51.099 26.4167 50.7969 26.0937C50.5 25.7708 50.2708 25.4245 50.1094 25.0547H50.0313V31.5H46.2109ZM49.9531 21C49.9531 21.6458 50.0391 22.2083 50.2109 22.6875C50.388 23.1667 50.6406 23.5391 50.9687 23.8047C51.3021 24.0651 51.7005 24.1953 52.1641 24.1953C52.6328 24.1953 53.0313 24.0651 53.3594 23.8047C53.6875 23.5391 53.9349 23.1667 54.1016 22.6875C54.2734 22.2083 54.3594 21.6458 54.3594 21C54.3594 20.3542 54.2734 19.7943 54.1016 19.3203C53.9349 18.8464 53.6875 18.4792 53.3594 18.2187C53.0365 17.9583 52.638 17.8281 52.1641 17.8281C51.6953 17.8281 51.2969 17.9557 50.9687 18.2109C50.6406 18.4661 50.388 18.8307 50.2109 19.3047C50.0391 19.7786 49.9531 20.3437 49.9531 21ZM64.1035 11V27H60.2832V11H64.1035ZM69.918 27.2031C69.1523 27.2031 68.4727 27.0755 67.8789 26.8203C67.2904 26.5599 66.8242 26.1693 66.4805 25.6484C66.1419 25.1224 65.9727 24.4635 65.9727 23.6719C65.9727 23.0052 66.0898 22.4427 66.3242 21.9844C66.5586 21.526 66.8815 21.1536 67.293 20.8672C67.7044 20.5807 68.1784 20.3646 68.7148 20.2187C69.2513 20.0677 69.8242 19.9661 70.4336 19.9141C71.1159 19.8516 71.6654 19.7865 72.082 19.7188C72.4987 19.6458 72.8008 19.5443 72.9883 19.4141C73.181 19.2786 73.2773 19.0885 73.2773 18.8437V18.8047C73.2773 18.4036 73.1393 18.0937 72.8633 17.875C72.5872 17.6562 72.2148 17.5469 71.7461 17.5469C71.2409 17.5469 70.8346 17.6562 70.5273 17.875C70.2201 18.0937 70.0247 18.3958 69.9414 18.7812L66.418 18.6562C66.5221 17.9271 66.7904 17.276 67.2227 16.7031C67.6602 16.125 68.2591 15.6719 69.0195 15.3437C69.7852 15.0104 70.7044 14.8438 71.7773 14.8438C72.543 14.8438 73.2487 14.9349 73.8945 15.1172C74.5404 15.2943 75.1029 15.5547 75.582 15.8984C76.0612 16.237 76.431 16.6536 76.6914 17.1484C76.957 17.6432 77.0898 18.2083 77.0898 18.8437V27H73.4961V25.3281H73.4023C73.1888 25.7344 72.9154 26.0781 72.582 26.3594C72.2539 26.6406 71.8659 26.8516 71.418 26.9922C70.9753 27.1328 70.4753 27.2031 69.918 27.2031ZM71.0977 24.7031C71.5091 24.7031 71.8789 24.6198 72.207 24.4531C72.5404 24.2865 72.806 24.0573 73.0039 23.7656C73.2018 23.4687 73.3008 23.125 73.3008 22.7344V21.5937C73.1914 21.651 73.0586 21.7031 72.9023 21.75C72.7513 21.7969 72.5846 21.8411 72.4023 21.8828C72.2201 21.9245 72.0326 21.9609 71.8398 21.9922C71.6471 22.0234 71.4622 22.0521 71.2852 22.0781C70.9258 22.1354 70.6185 22.224 70.3633 22.3437C70.1133 22.4635 69.9206 22.6198 69.7852 22.8125C69.6549 23 69.5898 23.224 69.5898 23.4844C69.5898 23.8802 69.7305 24.1823 70.0117 24.3906C70.2982 24.599 70.6602 24.7031 71.0977 24.7031ZM83.2461 20.1562V27H79.4258V15H83.0586V17.2031H83.1914C83.457 16.4687 83.9102 15.8932 84.5508 15.4766C85.1914 15.0547 85.9544 14.8438 86.8398 14.8438C87.6836 14.8438 88.4154 15.0339 89.0352 15.4141C89.6602 15.7891 90.1445 16.3151 90.4883 16.9922C90.8372 17.6641 91.0091 18.4505 91.0039 19.3516V27H87.1836V20.1016C87.1888 19.4349 87.0195 18.9141 86.6758 18.5391C86.3372 18.1641 85.8659 17.9766 85.2617 17.9766C84.8607 17.9766 84.5065 18.0651 84.1992 18.2422C83.8971 18.4141 83.6628 18.6615 83.4961 18.9844C83.3346 19.3073 83.2513 19.6979 83.2461 20.1562ZM95.5176 27.2266C94.9551 27.2266 94.4733 27.0286 94.0723 26.6328C93.6764 26.237 93.4811 25.7578 93.4863 25.1953C93.4811 24.6432 93.6764 24.1719 94.0723 23.7812C94.4733 23.3854 94.9551 23.1875 95.5176 23.1875C96.0488 23.1875 96.5176 23.3854 96.9238 23.7812C97.3353 24.1719 97.5436 24.6432 97.5488 25.1953C97.5436 25.5703 97.4447 25.9115 97.252 26.2188C97.0645 26.526 96.8171 26.7708 96.5098 26.9531C96.2077 27.1354 95.877 27.2266 95.5176 27.2266Z" fill="black"/>
<path d="M100.072 27V15H103.893V27H100.072ZM101.986 13.6016C101.45 13.6016 100.989 13.4245 100.604 13.0703C100.218 12.7109 100.025 12.2786 100.025 11.7734C100.025 11.2734 100.218 10.8464 100.604 10.4922C100.989 10.1328 101.45 9.95312 101.986 9.95312C102.528 9.95312 102.989 10.1328 103.369 10.4922C103.755 10.8464 103.947 11.2734 103.947 11.7734C103.947 12.2786 103.755 12.7109 103.369 13.0703C102.989 13.4245 102.528 13.6016 101.986 13.6016ZM113.098 15V17.8125H105.527V15H113.098ZM107.113 12.125H110.934V23.2266C110.934 23.4609 110.97 23.651 111.043 23.7969C111.121 23.9375 111.233 24.0391 111.379 24.1016C111.525 24.1589 111.699 24.1875 111.902 24.1875C112.048 24.1875 112.202 24.1745 112.363 24.1484C112.53 24.1172 112.655 24.0911 112.738 24.0703L113.316 26.8281C113.134 26.8802 112.876 26.9453 112.543 27.0234C112.215 27.1016 111.822 27.151 111.363 27.1719C110.467 27.2135 109.699 27.1094 109.059 26.8594C108.423 26.6042 107.936 26.2083 107.598 25.6719C107.264 25.1354 107.103 24.4609 107.113 23.6484V12.125Z" fill="#2563EB"/>
</svg>
