<svg width="126" height="41" viewBox="0 0 126 41" fill="none" xmlns="http://www.w3.org/2000/svg">
<path fill-rule="evenodd" clip-rule="evenodd" d="M0 20.5C0 31.8221 9.17785 41 20.5 41C31.8221 41 41 31.8221 41 20.5C41 9.17785 31.8221 0 20.5 0C9.17785 0 0 9.17785 0 20.5ZM20.5 36.9C13.0544 36.9 6.84597 31.6079 5.4284 24.5795C5.09425 22.9169 6.50157 21.525 8.2 21.525H32.8C34.4984 21.525 35.9068 22.9159 35.5716 24.5795C34.153 31.6089 27.9456 36.9 20.5 36.9Z" fill="#2563EB"/>
<path d="M46.704 32.28V14.256H50.352L50.496 17.112L49.776 16.896C49.888 16.368 50.16 15.888 50.592 15.456C51.024 15.024 51.568 14.68 52.224 14.424C52.896 14.152 53.6 14.016 54.336 14.016C55.424 14.016 56.392 14.304 57.24 14.88C58.088 15.44 58.752 16.216 59.232 17.208C59.728 18.184 59.976 19.32 59.976 20.616C59.976 21.896 59.728 23.032 59.232 24.024C58.752 25.016 58.08 25.8 57.216 26.376C56.368 26.936 55.392 27.216 54.288 27.216C53.568 27.216 52.88 27.08 52.224 26.808C51.568 26.536 51.016 26.168 50.568 25.704C50.12 25.24 49.824 24.736 49.68 24.192L50.568 23.856V32.28H46.704ZM53.352 23.976C53.928 23.976 54.432 23.84 54.864 23.568C55.296 23.28 55.632 22.888 55.872 22.392C56.112 21.896 56.232 21.304 56.232 20.616C56.232 19.944 56.112 19.36 55.872 18.864C55.632 18.352 55.296 17.96 54.864 17.688C54.448 17.4 53.944 17.256 53.352 17.256C52.76 17.256 52.248 17.392 51.816 17.664C51.384 17.936 51.048 18.328 50.808 18.84C50.568 19.352 50.448 19.944 50.448 20.616C50.448 21.304 50.568 21.896 50.808 22.392C51.048 22.888 51.384 23.28 51.816 23.568C52.248 23.84 52.76 23.976 53.352 23.976ZM62.5483 27V9.24H66.3883V27H62.5483ZM74.283 27.216C73.211 27.216 72.251 26.936 71.403 26.376C70.571 25.8 69.907 25.016 69.411 24.024C68.915 23.016 68.667 21.88 68.667 20.616C68.667 19.32 68.915 18.176 69.411 17.184C69.907 16.192 70.587 15.416 71.451 14.856C72.315 14.28 73.299 13.992 74.403 13.992C75.011 13.992 75.563 14.08 76.059 14.256C76.571 14.432 77.019 14.68 77.403 15C77.787 15.304 78.115 15.664 78.387 16.08C78.659 16.48 78.859 16.912 78.987 17.376L78.195 17.28V14.256H82.011V27H78.123V23.928L78.987 23.904C78.859 24.352 78.651 24.776 78.363 25.176C78.075 25.576 77.723 25.928 77.307 26.232C76.891 26.536 76.427 26.776 75.915 26.952C75.403 27.128 74.859 27.216 74.283 27.216ZM75.339 23.976C75.931 23.976 76.443 23.84 76.875 23.568C77.307 23.296 77.643 22.912 77.883 22.416C78.123 21.904 78.243 21.304 78.243 20.616C78.243 19.928 78.123 19.336 77.883 18.84C77.643 18.328 77.307 17.936 76.875 17.664C76.443 17.376 75.931 17.232 75.339 17.232C74.763 17.232 74.259 17.376 73.827 17.664C73.411 17.936 73.083 18.328 72.843 18.84C72.603 19.336 72.483 19.928 72.483 20.616C72.483 21.304 72.603 21.904 72.843 22.416C73.083 22.912 73.411 23.296 73.827 23.568C74.259 23.84 74.763 23.976 75.339 23.976ZM85.3993 27V14.256H89.0473L89.1673 16.848L88.3993 17.136C88.5753 16.56 88.8873 16.04 89.3353 15.576C89.7993 15.096 90.3513 14.712 90.9913 14.424C91.6313 14.136 92.3033 13.992 93.0073 13.992C93.9673 13.992 94.7753 14.192 95.4313 14.592C96.0873 14.976 96.5833 15.56 96.9193 16.344C97.2553 17.112 97.4233 18.056 97.4233 19.176V27H93.5593V19.488C93.5593 18.976 93.4873 18.552 93.3433 18.216C93.1993 17.88 92.9753 17.632 92.6713 17.472C92.3833 17.296 92.0233 17.216 91.5913 17.232C91.2553 17.232 90.9433 17.288 90.6553 17.4C90.3673 17.496 90.1193 17.648 89.9113 17.856C89.7033 18.048 89.5353 18.272 89.4073 18.528C89.2953 18.784 89.2393 19.064 89.2393 19.368V27H87.3433C86.8953 27 86.5113 27 86.1913 27C85.8713 27 85.6073 27 85.3993 27ZM102.002 27.264C101.346 27.264 100.834 27.08 100.466 26.712C100.114 26.344 99.9377 25.816 99.9377 25.128C99.9377 24.488 100.13 23.968 100.514 23.568C100.898 23.168 101.394 22.968 102.002 22.968C102.658 22.968 103.17 23.16 103.538 23.544C103.906 23.912 104.09 24.44 104.09 25.128C104.09 25.752 103.898 26.264 103.514 26.664C103.13 27.064 102.626 27.264 102.002 27.264Z" fill="black"/>
<path d="M107.014 27V14.256H110.854V27H107.014ZM108.934 11.736C108.214 11.736 107.646 11.568 107.23 11.232C106.83 10.88 106.63 10.384 106.63 9.744C106.63 9.168 106.838 8.696 107.254 8.328C107.67 7.96 108.23 7.776 108.934 7.776C109.654 7.776 110.214 7.952 110.614 8.304C111.014 8.64 111.214 9.12 111.214 9.744C111.214 10.336 111.006 10.816 110.59 11.184C110.19 11.552 109.638 11.736 108.934 11.736ZM115.518 27V11.04H119.358V27H115.518ZM113.262 17.616V14.256H121.83V17.616H113.262Z" fill="#2563EB"/>
</svg>
